<?xml version="1.0" encoding="iso-8859-1"?>
<!-- Generator: Adobe Illustrator 17.1.0, SVG Export Plug-In . SVG Version: 6.00 Build 0)  -->
<!DOCTYPE svg PUBLIC "-//W3C//DTD SVG 1.1//EN" "http://www.w3.org/Graphics/SVG/1.1/DTD/svg11.dtd">
<svg version="1.1" id="Capa_1" xmlns="http://www.w3.org/2000/svg" xmlns:xlink="http://www.w3.org/1999/xlink" x="0px" y="0px"
	 viewBox="0 0 394.69 394.69" style="enable-background:new 0 0 394.69 394.69;" xml:space="preserve">
<path id="XMLID_222_" d="M81.52,21.482c-2.461-4.318-0.955-9.814,3.363-12.275c9.562-5.448,17.913-6.574,24.817-3.35
	c8.168,3.816,11.912,12.256,14.312,21.899c12.829-6.637,26.976-10.589,41.528-11.542c15.8-1.035,31.212,1.393,45.819,7.214
	c4.617,1.841,6.868,7.075,5.028,11.692c-1.841,4.617-7.075,6.87-11.693,5.028c-12.099-4.823-24.876-6.832-37.977-5.974
	c-13.843,0.907-27.238,5.082-39.042,12.133c1.225,6.19,2.764,12.317,4.983,14.874c3.258,3.754,2.857,9.438-0.896,12.696
	c-1.703,1.479-3.805,2.204-5.896,2.204c-2.518,0-5.021-1.05-6.8-3.1c-6.186-7.126-8.234-18.466-10.215-29.433
	c-1.256-6.955-3.594-19.901-6.77-21.385c-0.681-0.321-3.29-0.167-8.286,2.68C89.479,27.309,83.981,25.8,81.52,21.482z
	 M188.412,71.684c3.49,0,6.811-2.042,8.274-5.451c1.961-4.567-0.152-9.86-4.72-11.821c-10.476-4.496-21.871-5.52-32.955-2.958
	c-4.843,1.119-7.861,5.953-6.741,10.796s5.956,7.865,10.796,6.741c7.327-1.695,14.865-1.016,21.8,1.962
	C186.023,71.45,187.227,71.684,188.412,71.684z M206.434,94.058l2.332,26.154c0.008,0.121,0.019,0.241,0.032,0.36l1.114,12.489
	c0.417,4.679,4.345,8.201,8.954,8.201c0.268,0,0.538-0.013,0.81-0.036c4.951-0.441,8.606-4.813,8.165-9.765l-0.257-2.879h10.271
	c4.971,0,9-4.029,9-9s-4.029-9-9-9h-11.876l-1.616-18.124c-0.655-7.355,2.915-12.952,6.026-16.353
	c6.107-6.676,15.537-10.661,25.224-10.661h22.628c9.687,0,19.116,3.985,25.223,10.66c2.666,2.914,5.67,7.443,6.061,13.311h-11.642
	c-4.971,0-9,4.029-9,9s4.029,9,9,9h10.273l-2.144,24.047c-0.441,4.95,3.214,9.322,8.165,9.764c4.953,0.425,9.323-3.214,9.764-8.166
	l3.477-39.004c0.965-10.833-2.826-21.522-10.674-30.102c-9.458-10.338-23.852-16.51-38.503-16.51h-0.311
	c3.821-13.34,11.563-24.47,21.726-30.807c4.218-2.63,5.505-8.182,2.875-12.398c-2.629-4.22-8.18-5.507-12.399-2.875
	c-9.56,5.961-17.519,14.847-23.205,25.526c-5.687-10.68-13.646-19.565-23.206-25.526c-4.219-2.63-9.769-1.343-12.399,2.875
	c-2.63,4.217-1.343,9.769,2.875,12.398c10.163,6.337,17.905,17.467,21.725,30.807h-0.309c-14.652,0-29.046,6.173-38.505,16.512
	C209.26,72.535,205.469,83.225,206.434,94.058z M162.155,87.187c-4.183-2.686-9.75-1.471-12.436,2.714
	c-2.684,4.183-1.469,9.75,2.714,12.435c6.353,4.077,11.138,9.94,13.839,16.956c1.376,3.575,4.786,5.77,8.401,5.77
	c1.075,0,2.168-0.194,3.231-0.604c4.639-1.786,6.952-6.994,5.166-11.633C178.984,102.211,171.752,93.345,162.155,87.187z
	 M76.327,136.577c0.198,0,0.397-0.006,0.597-0.02c4.96-0.324,8.717-4.608,8.392-9.568c-1.222-18.667,3.427-36.843,13.445-52.563
	c2.671-4.191,1.439-9.755-2.753-12.427c-4.19-2.67-9.754-1.438-12.427,2.753c-12.09,18.971-17.702,40.898-16.227,63.412
	C67.667,132.925,71.624,136.577,76.327,136.577z M327.436,158.968V385.69c0,4.971-4.029,9-9,9H76.258c-4.971,0-9-4.029-9-9V158.968
	c0-4.971,4.029-9,9-9h2.775c3.163,0,6.093,1.66,7.719,4.373c2.023,3.375,5.755,5.472,9.74,5.472s7.717-2.097,9.741-5.472
	c1.626-2.713,4.557-4.373,7.719-4.373h5.336c3.163,0,6.094,1.66,7.72,4.374c2.022,3.374,5.754,5.471,9.739,5.471
	c3.985,0,7.718-2.098,9.743-5.474c1.626-2.712,4.556-4.371,7.718-4.371h5.551c3.163,0,6.093,1.66,7.719,4.373
	c2.023,3.375,5.755,5.472,9.739,5.472c3.985,0,7.718-2.097,9.742-5.472c1.626-2.713,4.557-4.373,7.719-4.373h5.335
	c3.163,0,6.094,1.66,7.72,4.373c2.023,3.375,5.755,5.472,9.739,5.472c3.986,0,7.718-2.097,9.741-5.472
	c1.626-2.713,4.557-4.373,7.72-4.373h5.551c3.162,0,6.092,1.659,7.719,4.372c2.024,3.376,5.757,5.473,9.742,5.473
	c3.985,0,7.717-2.097,9.739-5.471c1.626-2.714,4.557-4.374,7.72-4.374h5.337c3.163,0,6.094,1.66,7.72,4.373
	c2.023,3.375,5.754,5.472,9.739,5.472c3.985,0,7.718-2.097,9.742-5.473c1.626-2.712,4.556-4.372,7.719-4.372h2.775
	C323.407,149.968,327.436,153.997,327.436,158.968z M309.436,175.569c-3.517,1.457-7.332,2.244-11.236,2.244
	c-7.543,0-14.749-2.937-20.127-7.969c-5.378,5.032-12.583,7.969-20.128,7.969c-7.593,0-14.845-2.977-20.235-8.07
	c-5.389,5.095-12.641,8.07-20.235,8.07c-7.544,0-14.75-2.937-20.128-7.969c-5.378,5.032-12.583,7.969-20.126,7.969
	c-7.594,0-14.847-2.977-20.236-8.07c-5.39,5.094-12.642,8.07-20.235,8.07c-7.544,0-14.75-2.937-20.128-7.969
	c-5.378,5.031-12.584,7.969-20.127,7.969c-3.904,0-7.719-0.787-11.236-2.243v201.12h224.178V175.569z M125.619,88.413
	c-4.75-1.47-9.79,1.184-11.262,5.932c-3.369,10.864-3.185,22.305,0.533,33.084c1.286,3.728,4.774,6.068,8.508,6.068
	c0.973,0,1.963-0.159,2.935-0.495c4.699-1.62,7.194-6.743,5.574-11.442c-2.461-7.135-2.584-14.702-0.357-21.885
	C133.021,94.928,130.366,89.886,125.619,88.413z M242.926,227.184c13.643,14.823,15.9,39.993,5.618,62.632
	c-10.227,22.521-30.5,37.375-50.536,36.991c-0.501,0.019-1.007,0.028-1.509,0.028c-19.54,0-39.349-14.244-49.76-35.995
	c-10.735-22.431-8.983-47.642,4.36-62.733c1.613-1.825,3.896-2.918,6.329-3.029c14.183-0.644,28.654,6.325,39.727,18.349
	c10.897-12.381,25.215-19.513,39.38-19.145C238.971,224.344,241.277,225.392,242.926,227.184z M192.784,268.803
	c-6.764-14.133-18.895-24.109-30.56-25.58c-6.172,10.008-6.012,25.714,0.752,39.846c6.764,14.133,18.896,24.108,30.561,25.579
	C199.709,298.641,199.548,282.936,192.784,268.803z M232.107,242.521c-8.648,1.267-17.546,7.238-24.215,16.253
	c0.388,0.743,0.764,1.496,1.128,2.259c6.768,14.138,8.574,29.38,5.643,42.497c7.051-4.65,13.373-12.085,17.493-21.157
	C238.634,268.109,238.479,252.404,232.107,242.521z"/>
<g>
</g>
<g>
</g>
<g>
</g>
<g>
</g>
<g>
</g>
<g>
</g>
<g>
</g>
<g>
</g>
<g>
</g>
<g>
</g>
<g>
</g>
<g>
</g>
<g>
</g>
<g>
</g>
<g>
</g>
</svg>
